<?xml version="1.0" ?><svg height="500" id="svg2" version="1.1" width="500" xmlns="http://www.w3.org/2000/svg" xmlns:cc="http://creativecommons.org/ns#" xmlns:dc="http://purl.org/dc/elements/1.1/" xmlns:inkscape="http://www.inkscape.org/namespaces/inkscape" xmlns:rdf="http://www.w3.org/1999/02/22-rdf-syntax-ns#" xmlns:sodipodi="http://sodipodi.sourceforge.net/DTD/sodipodi-0.dtd" xmlns:svg="http://www.w3.org/2000/svg"><defs id="defs4"/><g id="layer1" transform="translate(0,-552.36218)"><rect height="500" id="rect3758-1" rx="250" ry="250" style="fill:#4b4b4b;fill-opacity:1;stroke:none" width="500" x="0" y="552.36218"/><path d="m 130.025,672.36218 c -16.56169,0 -20.025,13.4883 -20.025,30.05 l 0,30.475 c -12.421265,16.63982 -20,37.13234 -20,59.475 l 0,40 c 0,55.23166 44.76833,100 100,100 l 120,0 c 55.23168,0 100,-44.76834 100,-100 l 0,-40 c 0,-22.34266 -7.5787,-42.83518 -20,-59.475 l 0,-30.475 c 0,-16.5617 -3.4633,-30.05 -20.025,-30.05 -13.98372,0 -32.0284,9.7569 -37.575,22.725 -7.2259,-1.67931 -14.66598,-2.725 -22.4,-2.725 l -120,0 c -7.73402,0 -15.1735,1.04506 -22.4,2.725 -5.5466,-12.9681 -23.59131,-22.725 -37.575,-22.725 z m 59.975,120 120,0 c 33.12338,0 59.975,26.87662 59.975,60 0,33.12337 -26.85162,60 -59.975,60 l -120,0 c -33.12338,0 -59.975,-26.87663 -59.975,-60 0,-33.12338 26.85162,-60 59.975,-60 z m 0,19.975 c -16.5617,0 -20,13.51332 -20,30.075 l 0,10.6 c 0,16.56168 3.4383,30.05 20,30.05 16.5617,0 20.025,-13.48832 20.025,-30.05 l 0,-10.6 c 0,-16.56168 -3.4633,-30.075 -20.025,-30.075 z m 120,0 c -16.5617,0 -20.025,13.51332 -20.025,30.075 l 0,10.6 c 0,16.56168 3.4633,30.05 20.025,30.05 16.5617,0 20,-13.48832 20,-30.05 l 0,-10.6 c 0,-16.56168 -3.4383,-30.075 -20,-30.075 z" id="rect2989-9" style="fill:#ffffff;fill-opacity:1;stroke:none"/><g id="layer1-9" transform="translate(-549.00515,80.294372)"/><g id="layer1-4" transform="matrix(1.2144212,0,0,1.2144212,-1056.0375,377.09109)"><g id="layer1-7" transform="translate(55.728928,-28.316651)"/><g id="g3006" style="fill:#ffffff" transform="matrix(0.17871094,0,0,0.17871094,245.33672,459.25678)"/></g></g></svg>